<?xml version="1.0" standalone="no"?>
<!DOCTYPE svg PUBLIC "-//W3C//DTD SVG 20010904//EN"
 "http://www.w3.org/TR/2001/REC-SVG-20010904/DTD/svg10.dtd">
<svg version="1.0" xmlns="http://www.w3.org/2000/svg"
 width="180.000000pt" height="180.000000pt" viewBox="0 0 180.000000 180.000000"
 preserveAspectRatio="xMidYMid meet">
<metadata>
Created by potrace 1.11, written by Peter Selinger 2001-2013
</metadata>
<g transform="translate(0.000000,180.000000) scale(0.100000,-0.100000)"
fill="#000000" stroke="none">
<path d="M1464 1454 c-21 -20 -25 -33 -22 -61 3 -29 0 -37 -18 -45 -17 -8 -28
-6 -45 6 -31 21 -51 20 -78 -5 -17 -16 -22 -29 -17 -50 5 -24 2 -30 -18 -35
-13 -3 -33 -1 -44 5 -26 14 -62 -12 -62 -44 0 -25 -32 -51 -49 -40 -14 8 -41
-5 -41 -21 0 -7 -20 -28 -45 -46 -25 -18 -62 -45 -82 -60 -19 -16 -39 -28 -42
-28 -3 0 -15 20 -25 43 -53 115 -214 333 -232 314 -3 -2 1 -11 9 -19 55 -54
215 -342 205 -368 -2 -5 -24 -30 -49 -57 -187 -198 -261 -377 -197 -473 31
-46 92 -80 110 -62 11 11 10 16 -3 25 -47 36 -67 130 -41 197 9 24 13 25 98
25 72 0 89 3 89 15 0 12 -17 16 -77 18 -79 3 -87 7 -68 43 9 16 22 19 75 19
62 0 91 14 65 30 -7 4 -32 7 -56 6 -24 -1 -44 1 -44 4 1 18 40 49 68 54 19 2
36 7 39 10 10 9 -8 25 -22 19 -8 -3 -15 -2 -15 1 0 15 33 56 45 56 12 0 38
-83 63 -195 9 -42 0 -84 -20 -96 -6 -4 -1 -10 12 -14 54 -17 78 62 49 168 -6
23 -13 49 -15 57 -2 8 -12 42 -23 75 l-20 60 32 30 c54 52 129 105 148 105 10
0 24 10 30 23 18 32 41 47 67 40 26 -6 66 23 58 43 -7 17 40 35 66 25 31 -11
65 3 74 31 4 13 7 26 6 30 -1 4 9 15 23 24 22 14 26 14 47 0 53 -37 128 -2
128 60 0 75 -84 111 -136 58z"/>
<path d="M545 1126 c-9 -39 -25 -111 -35 -161 -11 -49 -22 -100 -26 -112 -6
-21 -3 -23 30 -23 21 0 38 5 40 13 10 35 74 342 72 345 -2 1 -17 4 -34 6 -31
3 -31 3 -47 -68z"/>
<path d="M683 1183 c-16 -6 -17 -45 -1 -61 7 -7 17 -8 28 -2 27 14 33 41 13
56 -19 14 -22 15 -40 7z"/>
<path d="M222 1052 c-11 -11 -26 -55 -37 -105 -25 -118 -25 -117 127 -117 107
0 119 2 116 17 -3 14 -16 17 -96 16 l-93 -1 3 32 3 31 105 5 105 5 11 53 c17
76 9 82 -122 82 -88 0 -107 -3 -122 -18z m182 -29 c-1 -7 -2 -23 -2 -36 -2
-22 -6 -24 -72 -25 -68 -1 -70 -1 -70 23 0 39 23 53 87 51 40 -1 58 -5 57 -13z"/>
<path d="M649 1048 c0 -13 -2 -30 -4 -38 -4 -19 -34 -140 -41 -162 -4 -15 1
-18 35 -18 31 0 40 4 39 18 0 9 8 49 17 87 9 39 19 85 22 103 5 31 4 32 -31
32 -30 0 -36 -3 -37 -22z"/>
<path d="M1052 1043 c-1 -16 -13 -70 -25 -120 l-23 -93 35 0 36 0 19 93 c33
159 33 147 -6 147 -30 0 -34 -3 -36 -27z"/>
<path d="M1185 1028 c-4 -24 -9 -47 -10 -53 -2 -5 -8 -32 -14 -60 -7 -27 -14
-58 -17 -68 -5 -16 -1 -18 32 -15 29 2 38 7 39 23 3 33 28 139 37 158 6 13 21
17 57 17 52 0 62 5 54 26 -6 18 -84 19 -101 2 -9 -9 -12 -9 -12 0 0 7 -13 12
-29 12 -26 0 -29 -4 -36 -42z"/>
<path d="M844 477 c-17 -52 -14 -77 10 -73 20 3 24 7 30 36 2 14 8 39 11 55 6
26 4 31 -14 31 -16 0 -25 -12 -37 -49z"/>
<path d="M938 522 c-22 -4 -24 -22 -3 -22 17 0 19 -13 6 -58 -6 -20 -6 -32 0
-33 41 -6 44 -3 52 44 7 36 14 47 27 47 22 0 38 20 18 21 -52 4 -85 4 -100 1z"/>
<path d="M1091 514 c-29 -21 -83 -102 -72 -109 6 -3 14 2 18 10 11 19 69 26
66 8 -2 -7 2 -14 7 -14 41 -5 45 -3 42 21 -10 94 -22 111 -61 84z m9 -42 c0
-13 -12 -22 -22 -16 -10 6 -1 24 13 24 5 0 9 -4 9 -8z"/>
<path d="M1223 522 c-14 -9 -44 -110 -35 -115 18 -9 96 -1 99 10 3 8 -5 10
-23 7 -25 -5 -26 -3 -21 28 3 18 8 40 12 49 7 18 -15 32 -32 21z"/>
<path d="M1305 501 c4 -14 7 -39 8 -56 2 -31 20 -51 37 -40 6 3 10 12 10 18 0
7 14 28 30 47 16 19 30 38 30 43 0 13 -15 7 -34 -14 l-18 -21 -11 22 c-7 13
-22 24 -35 25 -21 2 -23 -1 -17 -24z"/>
</g>
</svg>
